<svg xmlns="http://www.w3.org/2000/svg" xmlns:xlink="http://www.w3.org/1999/xlink" version="1.0" x="0px" width="72" height="72" viewBox="0 0 72 72" enable-background="new 0 0 72 72" xml:space="preserve">
  <g transform="translate(5, 74) scale(0.011, -0.011)" fill="#000000" stroke="none">
    <path d="M2985 6198 c-1039 -121 -1618 -1159 -1378 -2468 29 -157 29 -161 -13
      -190 -963 -679 -1004 -2169 -72 -2609 579 -273 1386 -147 1713 268 32 41 86
      69 189 101 264 80 474 200 768 441 356 290 524 303 670 49 66 -115 77 -80 26
      91 -108 364 -423 386 -958 69 -181 -108 -420 -210 -489 -210 -8 0 -25 35 -38
      77 -47 158 -199 243 -354 200 -75 -22 -77 -24 -28 -37 123 -35 199 -119 199
      -221 0 -171 -741 151 -952 414 -193 241 -243 376 -94 255 417 -340 837 -259
      1183 227 187 264 475 329 632 143 187 -223 -10 -536 -257 -408 -74 39 -78 33
      -36 -49 125 -246 552 -151 717 159 56 106 52 455 -8 584 -218 475 -882 573
      -1396 206 -170 -121 -269 -117 -269 12 0 79 38 99 269 139 997 173 1551 716
      1551 1519 0 195 -28 365 -72 434 -15 25 -28 54 -28 66 0 36 -134 234 -223 331
      -273 296 -782 462 -1252 407z m-1302 -4400 c164 -233 450 -421 787 -514 l140
      -39 -74 -15 c-387 -75 -806 190 -923 585 -39 133 -34 132 70 -17z"/>
  </g>
</svg>
